<svg width="21" height="20" viewBox="0 0 21 20" fill="none" xmlns="http://www.w3.org/2000/svg">
<path d="M16.6434 0H4.6434C2.4434 0 0.643402 1.8 0.643402 4V16C0.643402 18.2 2.4434 20 4.6434 20H16.6434C18.8434 20 20.6434 18.2 20.6434 16V4C20.6434 1.8 18.8434 0 16.6434 0ZM10.6434 15C7.8934 15 5.6434 12.75 5.6434 10C5.6434 7.25 7.8934 5 10.6434 5C13.3934 5 15.6434 7.25 15.6434 10C15.6434 12.75 13.3934 15 10.6434 15ZM16.1434 5.5C15.5934 5.5 15.1434 5.05 15.1434 4.5C15.1434 3.95 15.5934 3.5 16.1434 3.5C16.6934 3.5 17.1434 3.95 17.1434 4.5C17.1434 5.05 16.6934 5.5 16.1434 5.5Z" fill="#8E8E8E"/>
</svg>
