<svg width="16" height="20" viewBox="0 0 16 20" fill="none" xmlns="http://www.w3.org/2000/svg">
<path fill-rule="evenodd" clip-rule="evenodd" d="M8.00061 0C3.66415 0 0.143402 3.52075 0.143402 7.85721C0.143402 9.84152 1.32484 12.2008 2.78557 14.2994C4.88487 17.3166 7.50918 19.8045 7.50918 19.8045C7.7849 20.0652 8.21633 20.0652 8.49205 19.8045C8.49205 19.8045 11.1164 17.3166 13.2157 14.2994C14.6764 12.2008 15.8578 9.84152 15.8578 7.85721C15.8578 3.52075 12.3371 0 8.00061 0ZM8.00061 3.92861C5.83202 3.92861 4.07201 5.68862 4.07201 7.85721C4.07201 10.0258 5.83202 11.7858 8.00061 11.7858C10.1692 11.7858 11.9292 10.0258 11.9292 7.85721C11.9292 5.68862 10.1692 3.92861 8.00061 3.92861ZM8.00061 5.35719C9.38063 5.35719 10.5006 6.4772 10.5006 7.85721C10.5006 9.23722 9.38063 10.3572 8.00061 10.3572C6.6206 10.3572 5.50059 9.23722 5.50059 7.85721C5.50059 6.4772 6.6206 5.35719 8.00061 5.35719Z" fill="#8E8E8E"/>
</svg>
