<svg width="21" height="20" viewBox="0 0 21 20" fill="none" xmlns="http://www.w3.org/2000/svg">
<g clip-path="url(#clip0_78_110)">
<path fill-rule="evenodd" clip-rule="evenodd" d="M0.14386 4.85443V5.6117C0.186734 5.7076 0.272483 6.45165 0.318655 6.65006C0.862828 8.92519 2.31066 11.1871 3.7354 12.9298C4.08499 13.3564 5.15025 14.527 5.47676 14.8346C5.86592 15.1983 6.30456 15.6382 6.74319 15.9986C7.38961 16.5277 8.0624 17.1064 8.77807 17.5793C10.4864 18.7036 12.706 19.9669 14.8365 19.9999C15.1729 20.0065 15.6116 19.947 15.9051 19.8445C16.4526 19.656 17.465 18.535 17.7949 18.0886C18.4347 17.2188 18.3588 16.2863 17.6003 15.4893C16.9967 14.8544 16.3404 14.365 15.5159 13.9583C13.7416 13.0852 12.96 14.785 12.3366 15.1454C11.6276 15.5555 10.4139 14.5998 9.86971 14.2063C9.02542 13.5978 7.45227 12.0535 6.75309 11.2433C6.21551 10.6216 6.18913 10.6117 5.67464 9.92056C5.3976 9.55019 4.92269 8.82268 4.9095 8.26051C4.8996 7.68511 5.45697 7.41726 5.91539 6.84186C6.31775 6.33591 6.5651 5.82995 6.30456 4.99993C6.13306 4.45099 5.71751 3.83921 5.43058 3.47215C4.86662 2.74133 3.79806 1.40535 2.33374 2.19569C1.86872 2.44702 0.701225 3.5912 0.457172 3.96818C0.312059 4.18974 0.269185 4.37162 0.219714 4.61964L0.14386 4.84781L0.14386 4.85443ZM10.0412 3.86567C8.98255 4.07731 8.9001 5.52903 9.94557 5.87294C10.1632 5.94569 10.4106 5.97215 10.6447 6.03167C12.2608 6.45826 13.7812 7.92321 14.1472 9.63617C14.1967 9.87427 14.2363 10.1421 14.3286 10.3472C14.764 11.3095 16.2217 11.0945 16.2976 9.99001C16.3239 9.57665 16.1096 8.8789 15.9842 8.53167C15.6544 7.61236 15.1927 6.86831 14.6947 6.26316C14.1868 5.64808 13.4283 5.04953 12.7423 4.66593C12.2509 4.39146 10.7635 3.72017 10.0412 3.86236V3.86567ZM20.143 10.5059V9.57995C20.1002 9.48405 19.9913 8.56474 19.9419 8.33988C19.7044 7.25522 19.2328 6.16064 18.6391 5.25786C17.0759 2.88022 14.8167 0.955615 11.9706 0.228102C11.1263 0.0131548 10.216 -0.0529827 9.31895 0.0429168C8.12177 0.171885 8.10528 1.283 8.45487 1.72942C8.98255 2.40733 9.69492 1.96091 10.9086 2.12294C11.2615 2.16924 11.7562 2.29821 12.0827 2.41726C13.326 2.86368 14.299 3.53829 15.229 4.38816L16.2877 5.53564C17.0627 6.52771 17.9235 7.89345 18.0554 9.62625C18.0917 10.1124 17.9795 10.5919 18.0257 11.0251C18.1378 12.0866 19.711 12.2949 20.0375 11.1342C20.0936 10.9391 20.0672 10.6679 20.1463 10.5059H20.143Z" fill="#8E8E8E"/>
</g>
<defs>
<clipPath id="clip0_78_110">
<rect width="20" height="20" fill="white" transform="translate(0.143402)"/>
</clipPath>
</defs>
</svg>
