<svg width="14" height="14" viewBox="0 0 14 14" fill="none" xmlns="http://www.w3.org/2000/svg">
<path fill-rule="evenodd" clip-rule="evenodd" d="M1 6.02632C1 3.25036 3.25036 1 6.02632 1C8.80229 1 11.0526 3.25036 11.0526 6.02632C11.0526 8.80229 8.80229 11.0526 6.02632 11.0526C3.25036 11.0526 1 8.80229 1 6.02632ZM6.02632 0C2.69807 0 0 2.69807 0 6.02632C0 9.35458 2.69807 12.0526 6.02632 12.0526C7.51045 12.0526 8.86926 11.5161 9.91942 10.6265L12.6728 13.3799C12.868 13.5751 13.1846 13.5751 13.3799 13.3799C13.5751 13.1846 13.5751 12.868 13.3799 12.6728L10.6265 9.91942C11.5161 8.86926 12.0526 7.51045 12.0526 6.02632C12.0526 2.69807 9.35458 0 6.02632 0Z" fill="#F3F3F3"/>
</svg>
