<svg width="25" height="20" viewBox="0 0 25 20" fill="none" xmlns="http://www.w3.org/2000/svg">
<path fill-rule="evenodd" clip-rule="evenodd" d="M0.375403 10.395C0.893578 10.9061 3.53794 11.6122 4.28679 11.8038C6.82752 12.4595 7.33566 11.9518 9.4652 10.4824C10.8593 9.52408 12.3068 8.56914 13.7109 7.62764L16.9135 5.50592C17.2713 5.27727 17.6657 4.89395 18.1772 5.05535C18.2608 5.2571 18.3277 5.38824 18.1739 5.60343C17.6791 6.29947 12.4639 11.1818 11.5646 12.0358C9.42174 14.0701 11.0832 14.5005 13.5705 16.2457L18.5082 19.5779C21.4033 21.091 21.5637 18.2194 22.0084 15.6539C22.2725 14.1374 22.6335 12.4595 22.8074 10.9565C23.0848 9.33242 23.3322 7.70498 23.5763 6.07418C23.7568 4.87041 24.2449 2.14681 24.1245 1.03719C24.0242 0.0856121 23.3389 -0.132949 22.3627 0.0687997C21.0823 0.334435 17.5086 1.84419 16.2583 2.3721C12.3202 4.0298 8.30181 5.73793 4.40714 7.46961L1.48196 8.74399C0.920322 8.98608 -0.38013 9.65522 0.368716 10.395H0.375403Z" fill="#8E8E8E"/>
</svg>
