<svg width="36" height="20" viewBox="0 0 36 20" fill="none" xmlns="http://www.w3.org/2000/svg">
<g clip-path="url(#clip0_78_105)">
<path fill-rule="evenodd" clip-rule="evenodd" d="M11.762 1.424C12.1771 1.55322 12.4031 1.53659 12.7799 1.73106C13.7925 2.25307 13.8628 3.44677 13.9024 4.60593C14.0122 7.77891 14.0147 12.7137 10.6076 7.67016C9.59363 6.17067 8.55795 4.24258 7.80322 2.46801C7.4814 1.71187 7.4035 1.26151 6.63089 0.985154C6.13029 0.807313 4.68724 0.90455 4.05255 0.905829C3.16628 0.907109 2.25064 0.899432 1.36437 0.919903C-0.516709 0.964683 0.216313 2.13792 0.667109 3.12947C2.26852 6.66069 4.6502 11.0568 7.02933 14.1402C8.52475 16.0773 10.1823 17.8019 12.8565 18.9701C14.0978 19.5125 15.6557 19.9399 17.1959 19.9296C17.8612 19.9245 19.2098 20.0115 19.7487 19.8401C21.1202 19.4025 20.2531 18.132 20.9606 16.3843C20.9746 16.3498 20.9912 16.3114 21.0104 16.2692L21.1866 15.9314C21.9656 14.7684 22.9247 15.5514 23.6475 16.3025C23.8505 16.5136 24.0995 16.7669 24.2822 16.9959L25.5515 18.4161C25.9551 18.8434 26.4199 19.2272 27.0419 19.5803C27.7915 20.0064 28.3253 20.0153 29.2435 19.9885C30.1157 19.9629 31.0198 19.9578 31.8933 19.9552C32.7183 19.9527 33.6569 20.0077 34.3504 19.7479C35.0757 19.4767 35.3707 18.8651 34.9442 18.0527C34.6249 17.445 34.261 16.9089 33.8791 16.4611C33.8102 16.3792 33.8038 16.369 33.7374 16.282C33.2355 15.6346 31.5587 13.9816 30.9266 13.4212L29.9229 12.4143C29.4529 11.8628 29.209 11.3498 29.6406 10.5182L30.0123 9.91683C30.8564 8.73976 31.9917 7.37461 32.7413 6.29605L33.5637 5.10747C34.1026 4.26816 34.6441 3.51586 34.9876 2.51023C35.6159 0.671694 34.095 0.910947 32.8958 0.922462L28.914 0.944212C27.8783 0.957006 27.3151 0.762534 26.8848 1.56345C26.7571 1.80143 26.6204 2.21852 26.4978 2.50255C25.7635 4.20419 25.2527 5.28787 24.2055 6.88715C23.6654 7.71238 22.5492 9.44856 21.6974 9.73132C20.9453 9.9808 20.6413 8.85491 20.5787 8.23822C20.4804 7.27098 20.6196 4.18884 20.6579 3.04247C20.7294 0.872564 20.5085 0.245645 18.2967 0.0601281C17.0899 -0.0409466 14.4017 -0.0537409 13.2549 0.229012C12.8501 0.328808 12.6432 0.41325 12.3278 0.629473C12.1567 0.74718 11.7237 1.09263 11.7633 1.4176L11.762 1.424Z" fill="#8E8E8E"/>
</g>
<defs>
<clipPath id="clip0_78_105">
<rect width="35" height="20" fill="white" transform="translate(0.142181)"/>
</clipPath>
</defs>
</svg>
